<?xml version="1.0" standalone="no"?>
<!DOCTYPE svg PUBLIC "-//W3C//DTD SVG 20010904//EN"
 "http://www.w3.org/TR/2001/REC-SVG-20010904/DTD/svg10.dtd">
<svg version="1.0" xmlns="http://www.w3.org/2000/svg"
 width="700.000000pt" height="700.000000pt" viewBox="0 0 700.000000 700.000000"
 preserveAspectRatio="xMidYMid meet">
<metadata>
Created by potrace 1.14, written by Peter Selinger 2001-2017
</metadata>
<g transform="translate(0.000000,700.000000) scale(0.100000,-0.100000)"
fill="#000000" stroke="none">
<path d="M1974 6985 c-89 -16 -178 -42 -228 -66 -22 -10 -43 -19 -48 -19 -5 0
-49 -25 -98 -56 -265 -163 -449 -459 -477 -763 -9 -100 -8 -5075 1 -5166 21
-211 131 -446 285 -608 94 -99 260 -203 401 -251 169 -57 105 -56 1720 -53
l1485 2 100 28 c211 57 405 183 538 347 116 144 204 354 223 530 4 36 7 1208
7 2605 0 2754 2 2612 -53 2784 -91 284 -325 527 -614 636 -166 63 -58 59
-1686 61 -1177 2 -1500 0 -1556 -11z"/>
</g>
</svg>
